<svg id="Layer_3" enable-background="new 0 0 64 64" height="512" viewBox="0 0 64 64" width="512" xmlns="http://www.w3.org/2000/svg"><g><path d="m49.162 46-11.162-3.72v-4.759c3.588-1.876 6.185-5.377 6.83-9.521h.17c2.206 0 4-1.794 4-4 0-1.006-.385-1.915-1-2.618v-4.382c0-8.822-7.178-16-16-16s-16 7.178-16 16v4.382c-.615.703-1 1.612-1 2.618 0 2.206 1.794 4 4 4h.17c.644 4.144 3.242 7.645 6.83 9.521v4.759l-11.162 3.72c-4.09 1.363-6.838 5.176-6.838 9.487v6.513c0 .553.447 1 1 1h46c.553 0 1-.447 1-1v-6.513c0-4.311-2.748-8.124-6.838-9.487zm4.838 9.487v2.513h-6v-2h-2v5h-2v-5c0-.553-.447-1-1-1h-1v-9.28l6.529 2.176c3.273 1.092 5.471 4.142 5.471 7.591zm-12 1.513v4h-5v-4zm-18-1c0 .552-.448 1-1 1s-1-.448-1-1 .448-1 1-1 1 .448 1 1zm2.799-11.879 4.576 3.661c.183.145.404.218.625.218s.442-.073.625-.219l4.576-3.661 1.411.47-6.612 5.143-6.612-5.143zm-5.799-18.121v-7h5c3.688 0 7.041-1.852 9-4.902 1.78 2.772 4.711 4.555 8 4.856v7.046c0 .38-.019.755-.057 1.125-3.293-2.039-7.057-3.125-10.943-3.125s-7.65 1.086-10.943 3.125c-.038-.37-.057-.745-.057-1.125zm24 0v-4c1.103 0 2 .897 2 2s-.897 2-2 2zm-13-23c7.72 0 14 6.28 14 14v3.142c-.322-.084-.653-.142-1-.142v-2c0-.553-.447-1-1-1-3.32 0-6.305-1.845-7.789-4.812l-.316-.634c-.338-.68-1.451-.68-1.789 0l-.316.633c-1.485 2.968-4.47 4.813-7.79 4.813h-6c-.553 0-1 .447-1 1v2c-.347 0-.678.058-1 .142v-3.142c0-7.72 6.28-14 14-14zm-15 21c0-1.103.897-2 2-2v4c-1.103 0-2-.897-2-2zm4.482 5.214.081-.054c3.101-2.067 6.709-3.16 10.437-3.16s7.336 1.093 10.437 3.16l.081.054c-1.378 4.502-5.571 7.786-10.518 7.786s-9.14-3.284-10.518-7.786zm10.518 9.786c1.396 0 2.739-.227 4-.636v4.156l-4 3.2-4-3.2v-4.156c1.261.409 2.604.636 4 .636zm-16.529 8.896 6.529-2.176v7.464c-1.161.414-2 1.514-2 2.816 0 1.654 1.346 3 3 3s3-1.346 3-3c0-1.302-.839-2.402-2-2.816v-7.14l7.386 5.744c.18.142.397.212.614.212s.434-.07.614-.211l7.386-5.744v8.955h-4c-.553 0-1 .447-1 1v5h-17v-5h-2v2h-6v-2.513c0-3.449 2.198-6.499 5.471-7.591zm-5.471 12.104h6v1h-6zm38 1v-1h6v1z"/></g></svg>