<svg id="Layer_3" enable-background="new 0 0 64 64" height="512" viewBox="0 0 64 64" width="512" xmlns="http://www.w3.org/2000/svg"><g><path d="m36 42.52v-4.156c-1.261.409-2.604.636-4 .636s-2.739-.227-4-.636v4.156l4 3.2z"/><circle cx="23" cy="56" r="1"/><path d="m25.388 44.591 6.612 5.142 6.612-5.143-1.411-.47-4.576 3.661c-.183.146-.404.219-.625.219s-.442-.073-.625-.219l-4.576-3.661z"/><path d="m42.518 29.214-.081-.054c-3.101-2.067-6.709-3.16-10.437-3.16s-7.336 1.093-10.438 3.16l-.081.054c1.379 4.502 5.572 7.786 10.519 7.786s9.14-3.284 10.518-7.786z"/><path d="m45 26c1.103 0 2-.897 2-2s-.897-2-2-2z"/><path d="m19 18c0-.553.447-1 1-1h6c3.32 0 6.305-1.845 7.789-4.813l.316-.633c.338-.68 1.451-.68 1.789 0l.316.634c1.485 2.967 4.47 4.812 7.79 4.812.553 0 1 .447 1 1v2c.347 0 .678.058 1 .142v-3.142c0-7.72-6.28-14-14-14s-14 6.28-14 14v3.142c.322-.084.653-.142 1-.142z"/><path d="m48 60h6v1h-6z"/><path d="m40 46.045-7.386 5.744c-.18.141-.397.211-.614.211s-.434-.07-.614-.211l-7.386-5.744v7.14c1.161.414 2 1.514 2 2.816 0 1.654-1.346 3-3 3s-3-1.346-3-3c0-1.302.839-2.402 2-2.816v-7.465l-6.529 2.176c-3.273 1.092-5.471 4.142-5.471 7.591v2.513h6v-2h2v5h17v-5c0-.553.447-1 1-1h4z"/><path d="m37 57h5v4h-5z"/><path d="m48.529 47.896-6.529-2.176v9.28h1c.553 0 1 .447 1 1v5h2v-5h2v2h6v-2.513c0-3.449-2.198-6.499-5.471-7.591z"/><path d="m10 60h6v1h-6z"/><path d="m19 26v-4c-1.103 0-2 .897-2 2s.897 2 2 2z"/><path d="m43 26v-7.046c-3.289-.302-6.22-2.084-8-4.856-1.959 3.05-5.312 4.902-9 4.902h-5v7c0 .38.019.755.057 1.125 3.293-2.039 7.057-3.125 10.943-3.125s7.65 1.086 10.943 3.125c.038-.37.057-.745.057-1.125z"/></g></svg>