<?xml version="1.0"?>
<svg xmlns="http://www.w3.org/2000/svg" viewBox="0 0 512 512" width="512" height="512"><g id="Solid"><path d="M272,168V129.889L245.186,76.261c-17.864,13.405-62.8,45.145-101.186,55.983V168a64,64,0,1,0,128,0ZM172,152a12,12,0,1,1,12-12A12.013,12.013,0,0,1,172,152Zm36,48a24.028,24.028,0,0,1-24-24h16a8,8,0,0,0,16,0h16A24.028,24.028,0,0,1,208,200Zm36-48a12,12,0,1,1,12-12A12.013,12.013,0,0,1,244,152Z"/><path d="M128,288h-4.2A31.962,31.962,0,0,0,92,316.464L89.829,336H128Z"/><path d="M159.518,307.427,153.966,288H144v48h36.846A50.451,50.451,0,0,1,159.518,307.427Z"/><path d="M128,168V136a16,16,0,0,0,0,32Z"/><path d="M288,136v32a16,16,0,0,0,0-32Z"/><path d="M134.588,408a6.635,6.635,0,0,0-4.98,2.066,6.748,6.748,0,0,0-1.639,5.231,9.819,9.819,0,0,0,9.443,8.7,6.635,6.635,0,0,0,4.98-2.066,6.748,6.748,0,0,0,1.639-5.231A9.819,9.819,0,0,0,134.588,408Z"/><path d="M208,328a34.429,34.429,0,0,0,33.1-24.965l4.36-15.257A16.011,16.011,0,0,1,232,272V244.339a80.487,80.487,0,0,1-48,0V272a16.011,16.011,0,0,1-13.457,15.778l4.359,15.254A34.566,34.566,0,0,0,208,328Z"/><path d="M243,57.753a8,8,0,0,1,12.152,2.669L284.944,120H288V104a72.081,72.081,0,0,0-72-72H200a72.081,72.081,0,0,0-72,72v15.392q3.006-.43,6.244-1.157C179.789,108.017,242.376,58.254,243,57.753Z"/><path d="M408.91,369.437A23.976,23.976,0,0,1,432,352h24a8,8,0,0,0,0-16H432a39.782,39.782,0,0,0-13.563,2.367,53.627,53.627,0,0,1-14.025,17.58Z"/><path d="M430.43,419.877a55.44,55.44,0,0,0-25.4-20.449,8,8,0,0,1-4.619-4.9l-10.1-30.287A52.99,52.99,0,0,1,370.7,368h-21.39A53.225,53.225,0,0,1,336,366.319V464a8,8,0,0,1-2.343,5.657A19.472,19.472,0,0,0,328.291,480l15.866,0A34.98,34.98,0,0,1,352,460.925V416h16v48a8,8,0,0,1-2.343,5.657,19.152,19.152,0,0,0-5.356,10.335l23.7-.006V416h16v63.982l40-.01V451.08a55.183,55.183,0,0,0-5.236-23.559A56.339,56.339,0,0,0,430.43,419.877Z"/><path d="M370.7,352a37.3,37.3,0,0,0,33.367-53.987l-3.217-6.436A7.987,7.987,0,0,1,400,288V265.292A25.273,25.273,0,0,0,384,281.3l-.409,1.229A8,8,0,0,1,376,288H344a8,8,0,0,1-7.59-5.472L336,281.3a25.269,25.269,0,0,0-16-16.005V288a7.987,7.987,0,0,1-.845,3.577l-3.217,6.435A37.305,37.305,0,0,0,349.305,352ZM376,304h16v16H376Zm-32,16H328V304h16Z"/><path d="M468.286,411.72A39.709,39.709,0,0,0,440,400h-5.406a70.487,70.487,0,0,1,12.866,17.192,24.009,24.009,0,0,1,9.527,39.775c-.322.319-.654.62-.987.918v18.8a40.019,40.019,0,0,0,12.286-64.963Z"/><path d="M303.2,92.159A32,32,0,0,0,288,32a31.719,31.719,0,0,0-15.926,4.23A87.984,87.984,0,0,1,303.2,92.159Z"/><path d="M296,314.7a53.571,53.571,0,0,1,5.549-23.668A31.756,31.756,0,0,0,288,288v77.176A69.953,69.953,0,0,1,290.054,448H320V359.191A53.291,53.291,0,0,1,296,314.7Z"/><path d="M267.957,468.928A22.18,22.18,0,0,1,267.6,480h44.56a35.669,35.669,0,0,1,5.609-16H266.862Z"/><path d="M227.322,359.831A9.94,9.94,0,0,0,217.561,352H38.246A6.253,6.253,0,0,0,32,358.246a6.171,6.171,0,0,0,.186,1.51L60.353,472.425a9.985,9.985,0,0,0,9.7,7.575H246.24a6.246,6.246,0,0,0,6.1-7.6Zm-73.131,72.908A22.447,22.447,0,0,1,137.412,440a25.682,25.682,0,0,1-25.381-23.3A22.412,22.412,0,0,1,134.588,392a25.682,25.682,0,0,1,25.381,23.3A22.552,22.552,0,0,1,154.191,432.739Z"/><path d="M273.874,442.854a54.021,54.021,0,0,0,.009-69.7A8,8,0,0,1,272,368V288h-9.966l-5.552,19.429a49.965,49.965,0,0,1-18.118,26.4,50.747,50.747,0,0,1-8.543,5.217,25.852,25.852,0,0,1,13.12,17.313L263.306,448H272A8.007,8.007,0,0,1,273.874,442.854Z"/></g></svg>
