<?xml version="1.0" encoding="iso-8859-1"?>
<!-- Generator: Adobe Illustrator 19.0.0, SVG Export Plug-In . SVG Version: 6.00 Build 0)  -->
<svg version="1.1" id="Capa_1" xmlns="http://www.w3.org/2000/svg" xmlns:xlink="http://www.w3.org/1999/xlink" x="0px" y="0px"
	 viewBox="0 0 430 430" style="enable-background:new 0 0 430 430;" xml:space="preserve">
<path style="fill:#FDC75B;" d="M421.2,196.2v60c0,17.3-14,31.3-31.3,31.3H271.3v-33.4H160.7v33.4h-2.1H42.1
	c-17.3,0-31.3-14-31.3-31.3v-60v-73.1c0-17.3,14-31.3,31.3-31.3h94h159.8h94c17.3,0,31.3,14,31.3,31.3V196.2z"/>
<path style="fill:#ED664C;" d="M421.2,256.3v104.4c0,17.3-14,31.3-31.3,31.3H42.1c-17.3,0-31.3-14-31.3-31.3V256.3
	c0,17.3,14,31.3,31.3,31.3h116.4h2.1v40.2h110.7v-40.2h118.5C407.2,287.6,421.2,273.6,421.2,256.3z"/>
<polygon style="fill:#FDC75B;" points="271.3,287.6 271.3,327.8 160.7,327.8 160.7,287.6 160.7,254.2 271.3,254.2 "/>
<path d="M388.9,83H305V68.3c0-22.8-18.7-41.3-41.4-41.3h-97.1c-22.8,0-41.4,18.5-41.4,41.3V83h-84C18.3,83,0,101.4,0,124.1v237.6
	C0,384.5,18.3,403,41.1,403h347.8c22.8,0,41.1-18.5,41.1-41.3V124.1C430,101.4,411.7,83,388.9,83z M145,68.3
	c0-11.8,9.7-21.3,21.4-21.3h97.1c11.8,0,21.4,9.5,21.4,21.3V83H145V68.3z M388.9,383H41.1c-11.8,0-21.1-9.5-21.1-21.3v-69
	c6,3.8,13.3,6.3,21.1,6.3H150v29.8c0,5.5,4.1,10.2,9.7,10.2h110.7c5.5,0,9.7-4.6,9.7-10.2V299H389c7.8,0,15.1-2.5,21.1-6.3v69
	C410,373.5,400.6,383,388.9,383z M170,319v-54h90v54H170z M388.9,279H280v-23.8c0-5.5-4.1-10.2-9.7-10.2H159.7
	c-5.5,0-9.7,4.7-9.7,10.2V279H41.1c-11.8,0-21.1-9.9-21.1-21.7V124.1c0-11.8,9.4-21.1,21.1-21.1h347.8c11.8,0,21.1,9.4,21.1,21.1
	v133.2C410,269.1,400.6,279,388.9,279z"/>
<g>
</g>
<g>
</g>
<g>
</g>
<g>
</g>
<g>
</g>
<g>
</g>
<g>
</g>
<g>
</g>
<g>
</g>
<g>
</g>
<g>
</g>
<g>
</g>
<g>
</g>
<g>
</g>
<g>
</g>
</svg>
